<svg xmlns="http://www.w3.org/2000/svg" viewBox="0 0 512 512"><title>Artboard 114</title><g id="Baby_Girl_Dress" data-name="Baby Girl Dress"><path d="M362.66667,234.66667l16.471-49.41286a21.33333,21.33333,0,0,1,20.23858-14.58714H448l21.33333-85.33334L384,42.66667,341.33333,21.33333H320s-21.33333,21.33334-64,21.33334-63.11068-21.33334-63.11068-21.33334H170.66667L128,42.66667,42.66667,85.33333,64,170.66667h48.6238a21.33333,21.33333,0,0,1,20.23858,14.58714l16.47095,49.41286s-128,42.66666-128,192c0,0,64,64,234.66667,64s234.66667-64,234.66667-64C490.66667,277.33333,362.66667,234.66667,362.66667,234.66667Z" style="fill:#f73478"/><path d="M359.30208,244.75,339.07292,238l19.83333-59.5A42.60167,42.60167,0,0,1,399.375,149.33333h40.29167v21.33334H399.375A21.319,21.319,0,0,0,379.13542,185.25Z" style="fill:#c2004f"/><path d="M200.83333,298.66667V277.33333A29.96377,29.96377,0,0,0,222.16667,268.5L256,234.66667l-33.83333-33.83334A29.96381,29.96381,0,0,0,200.83333,192V170.66667A51.15134,51.15134,0,0,1,237.25,185.75l48.91667,48.91667L237.25,283.58333A51.15135,51.15135,0,0,1,200.83333,298.66667Z" style="fill:#e41a67"/><path d="M311.16667,298.66667A51.15135,51.15135,0,0,1,274.75,283.58333l-48.91667-48.91666L274.75,185.75a51.50095,51.50095,0,0,1,87.91667,36.41667v25A51.56008,51.56008,0,0,1,311.16667,298.66667Zm-55.16667-64L289.83333,268.5a30.16989,30.16989,0,0,0,51.5-21.33333v-25a30.16989,30.16989,0,0,0-51.5-21.33334Z" style="fill:#e41a67"/><path d="M200.83333,298.66667V277.33333A29.96377,29.96377,0,0,0,222.16667,268.5L256,234.66667l-33.83333-33.83334A29.96381,29.96381,0,0,0,200.83333,192V170.66667A51.15134,51.15134,0,0,1,237.25,185.75l48.91667,48.91667L237.25,283.58333A51.15135,51.15135,0,0,1,200.83333,298.66667Z" style="fill:#e41a67"/><path d="M311.16667,298.66667A51.15135,51.15135,0,0,1,274.75,283.58333l-48.91667-48.91666L274.75,185.75a51.50095,51.50095,0,0,1,87.91667,36.41667v25A51.56008,51.56008,0,0,1,311.16667,298.66667Zm-55.16667-64L289.83333,268.5a30.16989,30.16989,0,0,0,51.5-21.33333v-25a30.16989,30.16989,0,0,0-51.5-21.33334Z" style="fill:#e41a67"/><path d="M286.16667,264.83333,271.08333,249.75a21.33105,21.33105,0,0,0-30.16666-30.16667L225.83333,204.5a42.66211,42.66211,0,0,1,60.33334,60.33333Z" style="fill:#e41a67"/><path d="M106.66667,149.33333H85.33333V128h21.33334V53.33333H128V128A21.36112,21.36112,0,0,1,106.66667,149.33333Z" style="fill:#fa7ca7"/><polygon points="67.513 96.76 62.214 75.56 42.667 85.333 64 170.667 85.99 170.667 80.656 149.333 67.513 96.76" style="fill:#5bcade"/><polygon points="444.487 96.76 449.786 75.56 469.333 85.333 448 170.667 426.01 170.667 431.344 149.333 444.487 96.76" style="fill:#27b9d4"/><path d="M256,128A106.10565,106.10565,0,0,1,154.01042,52.64583l20.39583-6.25a85.36561,85.36561,0,0,0,163.1875,0l20.39583,6.25A106.08687,106.08687,0,0,1,256,128Z" style="fill:#e41a67"/><path d="M256,128V106.66667a84.86094,84.86094,0,0,0,81.59375-60.27084l20.39583,6.25A106.08687,106.08687,0,0,1,256,128Z" style="fill:#c2004f"/><path d="M362.66667,85.33333a63.51689,63.51689,0,0,1-51.19792-25.59375l17.0625-12.8125A42.31732,42.31732,0,0,0,362.66667,64Z" style="fill:#009fc2"/><path d="M149.33333,85.33333V64a42.31732,42.31732,0,0,0,34.13542-17.07292l17.0625,12.8125A63.51689,63.51689,0,0,1,149.33333,85.33333Z" style="fill:#27b9d4"/><path d="M256,96a74.667,74.667,0,0,0,74.66667-74.66667H320s-21.33333,21.33334-64,21.33334-63.11068-21.33334-63.11068-21.33334h-11.556A74.667,74.667,0,0,0,256,96Z" style="fill:#fa7ca7"/><path d="M149.33333,64V42.66667a21.36113,21.36113,0,0,0,21.33334-21.33334H192A42.70887,42.70887,0,0,1,149.33333,64Z" style="fill:#e41a67"/><path d="M362.66667,64A42.70887,42.70887,0,0,1,320,21.33333h21.33333a21.36113,21.36113,0,0,0,21.33334,21.33334Z" style="fill:#c2004f"/><path d="M256,106.66667a85.43111,85.43111,0,0,1-85.33333-85.33334H192a64,64,0,0,0,128,0h21.33333A85.43111,85.43111,0,0,1,256,106.66667Z" style="fill:#27b9d4"/><path d="M405.33333,170.66667A42.70886,42.70886,0,0,1,362.66667,128V42.66667H384V128a21.36112,21.36112,0,0,0,21.33333,21.33333Z" style="fill:#c2004f"/><path d="M106.66667,170.66667V149.33333A21.36112,21.36112,0,0,0,128,128V42.66667h21.33333V128A42.70886,42.70886,0,0,1,106.66667,170.66667Z" style="fill:#e41a67"/><circle cx="352" cy="96" r="10.66667" style="fill:#7cd5e5"/><rect x="341.33333" y="85.33333" width="21.33333" height="64" style="fill:#f9578f"/><path d="M362.66667,234.66667H149.33333s-128,42.66666-128,192c0,0,64,64,234.66667,64s234.66667-64,234.66667-64C490.66667,277.33333,362.66667,234.66667,362.66667,234.66667Z" style="fill:#27b9d4"/><path d="M415.97412,466.894c-.40381-22.35742-7.01367-177.2536-111.50391-232.22741h-27.137l-3.375,10.11462C393.09375,284.5,394.66675,467.5,394.66675,469.34375v4.17944C402.26514,471.40753,409.35962,469.18134,415.97412,466.894Z" style="fill:#009fc2"/><path d="M256,448c-132.92708,0-201-44.36458-203.83333-46.25l23.57291-35.5625c.60417.39583,61.39584,39.14583,180.26042,39.14583Z" style="fill:#5bcade"/><path d="M175.05208,442.09375a446.31417,446.31417,0,0,1-49-10.25l11.14584-41.1875a401.08269,401.08269,0,0,0,44.27083,9.25Z" style="fill:#b4e7f0"/><path d="M33.69629,436.45361a202.26087,202.26087,0,0,0,19.67676,11.98651c1.89013-13.03894,26.37439-165.10968,142.002-203.65887L192,234.66663H164.18677C68.167,282.63007,40.12207,400.66138,33.69629,436.45361Z" style="fill:#009fc2"/><path d="M96.02588,466.894c6.6145,2.2873,13.709,4.51349,21.30737,6.62915v-4.18988c0-1.84375,1.3855-184.77081,120.7085-224.55206l-3.375-10.11462h-27.137C103.03955,289.64044,96.42969,444.53662,96.02588,466.894Z" style="fill:#009fc2"/><path d="M181.37012,486.175q10.28576,1.30088,21.3164,2.264c.273-21.34436,4.251-189.6264,60.85523-246.23065L256,234.66663H241.62354C186.523,301.30829,181.77271,457.018,181.37012,486.175Z" style="fill:#009fc2"/><path d="M330.62988,486.175c-.40259-29.157-5.15283-184.8667-60.25342-251.50836H256l-7.54175,7.54168c56.56543,56.56543,60.57788,224.884,60.85474,246.23065Q320.35352,487.48618,330.62988,486.175Z" style="fill:#009fc2"/><path d="M256,490.66667V448c106.57292,0,166.20833-27.17708,190.94792-42.13542-8.91667-85.39583-72.09375-119.66666-92.35417-128.53125H213.33333V234.66667H362.91667l3.77083,1.48958c19.70833,7.78125,118.32292,53.01042,123.75,179.67708l.48958,11.40625-9.21875,6.73959C458.38542,451.02083,389.69792,490.66667,256,490.66667Z" style="fill:#009fc2"/><path d="M200.83333,298.66667V277.33333A29.96377,29.96377,0,0,0,222.16667,268.5l41.375-41.375L278.625,242.20833l-41.375,41.375A51.15135,51.15135,0,0,1,200.83333,298.66667Z" style="fill:#009fc2"/><path d="M311.16667,298.66667A51.15135,51.15135,0,0,1,274.75,283.58333l-41.375-41.375L248.45833,227.125l41.375,41.375a30.16989,30.16989,0,0,0,51.5-21.33333v-12.5h21.33334v12.5A51.56008,51.56008,0,0,1,311.16667,298.66667Z" style="fill:#009fc2"/><path d="M256,234.66667l-11.16641-11.16642-9.16631-9.1663-13.4974-13.4974A30.16985,30.16985,0,0,0,200.83657,192h0a30.16986,30.16986,0,0,0-30.16986,30.16986v24.99361a30.16985,30.16985,0,0,0,30.16986,30.16986h0a30.16989,30.16989,0,0,0,21.33331-8.83654Z" style="fill:#f9578f"/><path d="M256,234.66667l11.16641-11.16642,9.16631-9.1663,13.4974-13.4974A30.16985,30.16985,0,0,1,311.16343,192h0a30.16986,30.16986,0,0,1,30.16986,30.16986v24.99361a30.16985,30.16985,0,0,1-30.16986,30.16986h0a30.16989,30.16989,0,0,1-21.33331-8.83654Z" style="fill:#f9578f"/><path d="M286.16667,264.83333,271.08333,249.75a21.36336,21.36336,0,0,0,0-30.16667L286.16667,204.5A42.70778,42.70778,0,0,1,286.16667,264.83333Z" style="fill:#f73478"/><rect x="234.66667" y="213.33333" width="42.66667" height="42.66667" rx="21.33331" ry="21.33331" style="fill:#fa7ca7"/><circle cx="202.66667" cy="224" r="10.66667" style="fill:#fb91b5"/><circle cx="309.33333" cy="224" r="10.66667" style="fill:#fb91b5"/></g></svg>