<?xml version="1.0" encoding="utf-8"?>
<!-- Generator: Adobe Illustrator 27.5.0, SVG Export Plug-In . SVG Version: 6.00 Build 0)  -->
<svg version="1.1" id="Layer_1" xmlns="http://www.w3.org/2000/svg" xmlns:xlink="http://www.w3.org/1999/xlink" x="0px" y="0px"
	 viewBox="0 0 285.381 193.917" style="enable-background:new 0 0 285.381 193.917;" xml:space="preserve">
<g>
	<g>
		<g>
			<polygon style="fill:#B2B4B6;" points="4.765,22.972 7.046,21.02 177.634,4.606 207.261,119.939 36.704,136.353 34.427,136.908 
							"/>
			<path style="fill:#ACAEB0;" d="M34.427,137.393c-0.217,0-0.414-0.145-0.47-0.363L4.296,23.094
				c-0.047-0.179,0.013-0.37,0.154-0.491l2.281-1.952C6.807,20.586,6.9,20.547,7,20.537L177.587,4.123
				c0.248-0.025,0.457,0.13,0.517,0.362l29.627,115.333c0.035,0.137,0.009,0.283-0.073,0.399c-0.081,0.116-0.209,0.191-0.35,0.204
				L36.75,136.836l-2.21,0.543C34.503,137.389,34.464,137.393,34.427,137.393z M5.312,23.144l29.463,113.18l1.814-0.442
				l170.061-16.372L177.268,5.128L7.245,21.488L5.312,23.144z"/>
		</g>
	</g>
	<g>
		<g>
			<polygon style="fill:#C9CACC;" points="7.013,21.023 182.612,3.393 212.237,118.727 36.636,136.357 			"/>
			<path style="fill:#ACAEB0;" d="M36.636,136.842c-0.221,0-0.414-0.148-0.471-0.364L6.542,21.144
				c-0.035-0.137-0.008-0.283,0.072-0.398c0.082-0.116,0.209-0.191,0.35-0.205L182.564,2.911c0.235-0.02,0.457,0.129,0.518,0.362
				l29.625,115.333c0.035,0.137,0.009,0.283-0.072,0.398c-0.081,0.116-0.208,0.191-0.349,0.205l-175.603,17.63
				C36.667,136.841,36.651,136.842,36.636,136.842z M7.622,21.449l29.379,114.384L211.627,118.3L182.247,3.918L7.622,21.449z"/>
		</g>
	</g>
	<g>
		<linearGradient id="SVGID_1_" gradientUnits="userSpaceOnUse" x1="14.521" y1="27.2225" x2="204.6407" y2="110.6423">
			<stop  offset="0.0024" style="stop-color:#00A5BC"/>
			<stop  offset="0.041" style="stop-color:#11A8BC"/>
			<stop  offset="0.117" style="stop-color:#3CB0BD"/>
			<stop  offset="0.2231" style="stop-color:#81BCBE"/>
			<stop  offset="0.3485" style="stop-color:#DCCCBF"/>
			<stop  offset="0.4375" style="stop-color:#C5C1BD"/>
			<stop  offset="0.625" style="stop-color:#88A6B7"/>
			<stop  offset="0.8936" style="stop-color:#287BAD"/>
			<stop  offset="1" style="stop-color:#0069A9"/>
		</linearGradient>
		<polygon style="fill:url(#SVGID_1_);" points="13.717,24.387 178.746,7.819 205.663,113.573 40.635,130.142 		"/>
	</g>
	<g>
		<g>
			<g>
				<polygon style="fill:#C4C6C8;" points="280.09,167.662 280.615,172.891 105.013,190.523 100.397,144.559 				"/>
				<path style="fill:#ACAEB0;" d="M105.013,191.008c-0.111,0-0.22-0.038-0.307-0.109c-0.1-0.081-0.163-0.199-0.176-0.327
					l-4.615-45.965c-0.015-0.147,0.038-0.293,0.145-0.396c0.105-0.104,0.262-0.149,0.399-0.134l179.692,23.104
					c0.225,0.029,0.399,0.208,0.421,0.433l0.524,5.229c0.027,0.266-0.167,0.504-0.434,0.531l-175.602,17.633
					C105.045,191.007,105.028,191.008,105.013,191.008z M100.941,145.117l4.505,44.875l174.637-17.536l-0.438-4.362L100.941,145.117
					z"/>
			</g>
		</g>
		<g>
			<g>
				<polygon style="fill:#C4C6C8;" points="36.636,136.36 100.397,144.559 105.013,190.523 37.16,141.561 				"/>
				<path style="fill:#ACAEB0;" d="M105.013,191.008c-0.1,0-0.2-0.031-0.284-0.092l-67.852-48.962
					c-0.111-0.081-0.186-0.206-0.198-0.345l-0.525-5.201c-0.016-0.147,0.037-0.293,0.144-0.396c0.106-0.104,0.26-0.151,0.399-0.134
					l63.763,8.199c0.225,0.029,0.399,0.209,0.421,0.433l4.602,45.831c0.023,0.056,0.035,0.117,0.035,0.182
					c0,0.268-0.217,0.485-0.484,0.485C105.028,191.008,105.021,191.009,105.013,191.008z M37.62,141.295l66.803,48.204l-4.47-44.509
					l-62.774-8.072L37.62,141.295z"/>
			</g>
		</g>
	</g>
	<g>
		<g>
			<polygon style="fill:#EBEBEC;" points="104.491,185.319 280.092,167.688 212.237,118.727 36.636,136.357 			"/>
			<path style="fill:#ACAEB0;" d="M104.491,185.804c-0.101,0-0.2-0.032-0.283-0.092L36.351,136.75
				c-0.162-0.118-0.236-0.324-0.184-0.519c0.053-0.195,0.219-0.336,0.42-0.357l175.603-17.631c0.116-0.01,0.235,0.02,0.332,0.09
				l67.855,48.961c0.163,0.118,0.237,0.325,0.184,0.52c-0.052,0.194-0.219,0.336-0.419,0.356l-175.6,17.631
				C104.524,185.803,104.508,185.804,104.491,185.804z M37.956,136.712l66.67,48.107l174.145-17.485l-66.669-48.105L37.956,136.712z
				"/>
		</g>
	</g>
	<g>
		<path style="fill:#EBEBEC;" d="M92.575,169.579c11.7-6.349,24.25-11.011,37.19-14.115c29.147-6.991,59.939-7.704,89.73-5.695
			c14.751,0.996,29.415,2.644,43.858,5.842l-51.116-36.884l-175.602,17.63l50.377,36.35C88.86,171.64,90.713,170.589,92.575,169.579
			z"/>
	</g>
	<g>
		<g>
			<g>
				<polygon style="fill:#ACAEB0;" points="194.404,160.296 208.589,170.272 169.271,174.251 155.363,164.216 				"/>
				<path style="fill:#898B8D;" d="M169.271,174.735c-0.102,0-0.201-0.032-0.284-0.092l-13.908-10.034
					c-0.163-0.118-0.236-0.325-0.184-0.52c0.052-0.194,0.219-0.336,0.42-0.357l39.04-3.92c0.118-0.009,0.232,0.02,0.328,0.086
					l14.185,9.976c0.165,0.117,0.24,0.324,0.189,0.52c-0.052,0.196-0.219,0.34-0.42,0.36l-39.317,3.979
					C169.304,174.734,169.287,174.735,169.271,174.735z M156.684,164.571l12.723,9.179l37.839-3.829l-12.973-9.123L156.684,164.571z
					"/>
			</g>
		</g>
	</g>
	<g>
		<g>
			<g>
				<polygon style="fill:#FFFFFF;" points="102.464,144.592 95.624,139.67 108.082,138.418 114.923,143.342 				"/>
				<path style="fill:#C9CACC;" d="M102.464,145.078c-0.101,0-0.2-0.032-0.283-0.092l-6.841-4.922
					c-0.163-0.117-0.237-0.324-0.186-0.519c0.054-0.195,0.22-0.337,0.421-0.357l12.458-1.252c0.116-0.01,0.236,0.02,0.332,0.089
					l6.841,4.924c0.164,0.118,0.238,0.324,0.186,0.519c-0.053,0.194-0.22,0.336-0.42,0.357l-12.459,1.251
					C102.497,145.077,102.48,145.078,102.464,145.078z M96.946,140.025l5.652,4.066l11.001-1.104l-5.652-4.068L96.946,140.025z"/>
			</g>
		</g>
		<g>
			<g>
				<polygon style="fill:#FFFFFF;" points="202.136,134.585 214.593,133.335 221.434,138.258 208.977,139.51 				"/>
				<path style="fill:#C9CACC;" d="M208.977,139.996c-0.101,0-0.2-0.032-0.283-0.092l-6.841-4.925
					c-0.164-0.118-0.237-0.324-0.186-0.519c0.053-0.194,0.22-0.336,0.421-0.357l12.456-1.25c0.117-0.012,0.236,0.02,0.332,0.089
					l6.841,4.923c0.164,0.117,0.237,0.324,0.186,0.519c-0.053,0.194-0.22,0.336-0.421,0.357l-12.456,1.253
					C209.009,139.995,208.993,139.996,208.977,139.996z M203.458,134.941l5.653,4.069l10.999-1.105l-5.652-4.067L203.458,134.941z"
					/>
			</g>
		</g>
		<g>
			<g>
				<polygon style="fill:#FFFFFF;" points="189.676,135.836 182.834,130.914 195.293,129.664 202.136,134.585 				"/>
				<path style="fill:#C9CACC;" d="M189.676,136.321c-0.102,0-0.201-0.032-0.283-0.091l-6.842-4.922
					c-0.164-0.118-0.237-0.325-0.186-0.519c0.053-0.195,0.22-0.337,0.421-0.357l12.458-1.25c0.116-0.01,0.236,0.019,0.332,0.089
					l6.843,4.922c0.164,0.118,0.238,0.325,0.186,0.519c-0.053,0.195-0.22,0.337-0.421,0.357l-12.46,1.25
					C189.708,136.32,189.691,136.321,189.676,136.321z M184.157,131.269l5.652,4.066l11.003-1.104l-5.654-4.066L184.157,131.269z"/>
			</g>
		</g>
		<g>
			<g>
				<polygon style="fill:#FFFFFF;" points="195.293,129.664 207.753,128.412 214.593,133.335 202.136,134.585 				"/>
				<path style="fill:#C9CACC;" d="M202.136,135.071c-0.102,0-0.201-0.032-0.283-0.092l-6.843-4.922
					c-0.164-0.117-0.238-0.324-0.186-0.519c0.053-0.195,0.22-0.337,0.42-0.357l12.461-1.251c0.116-0.012,0.235,0.02,0.331,0.089
					l6.84,4.923c0.163,0.118,0.237,0.325,0.186,0.52c-0.054,0.194-0.22,0.336-0.421,0.357l-12.457,1.251
					C202.168,135.07,202.151,135.071,202.136,135.071z M196.616,130.019l5.654,4.066l10.998-1.104l-5.65-4.067L196.616,130.019z"/>
			</g>
		</g>
		<g>
			<g>
				<polygon style="fill:#FFFFFF;" points="114.923,143.342 108.082,138.418 120.54,137.168 127.383,142.092 				"/>
				<path style="fill:#C9CACC;" d="M114.923,143.827c-0.102,0-0.201-0.032-0.283-0.091l-6.841-4.924
					c-0.164-0.118-0.238-0.325-0.185-0.52c0.053-0.194,0.22-0.336,0.42-0.357l12.459-1.25c0.118-0.01,0.235,0.019,0.331,0.089
					l6.843,4.924c0.164,0.117,0.238,0.324,0.187,0.519c-0.054,0.195-0.22,0.337-0.421,0.357l-12.46,1.25
					C114.955,143.826,114.939,143.827,114.923,143.827z M109.405,138.773l5.652,4.068l11.002-1.104l-5.654-4.068L109.405,138.773z"
					/>
			</g>
		</g>
		<g>
			<g>
				<polygon style="fill:#FFFFFF;" points="127.383,142.092 120.54,137.168 132.999,135.917 139.842,140.839 				"/>
				<path style="fill:#C9CACC;" d="M127.383,142.577c-0.101,0-0.2-0.032-0.283-0.091l-6.843-4.924
					c-0.164-0.118-0.237-0.325-0.186-0.519c0.053-0.195,0.22-0.337,0.421-0.357l12.458-1.251c0.117-0.01,0.236,0.019,0.332,0.089
					l6.843,4.923c0.164,0.118,0.237,0.325,0.186,0.519c-0.053,0.195-0.22,0.337-0.421,0.357l-12.458,1.252
					C127.415,142.576,127.399,142.577,127.383,142.577z M121.863,137.522l5.654,4.068l11.001-1.105l-5.654-4.068L121.863,137.522z"
					/>
			</g>
		</g>
		<g>
			<g>
				<polygon style="fill:#FFFFFF;" points="139.842,140.839 132.999,135.917 145.459,134.667 152.3,139.589 				"/>
				<path style="fill:#C9CACC;" d="M139.842,141.324c-0.102,0-0.201-0.032-0.283-0.091l-6.843-4.923
					c-0.164-0.118-0.238-0.324-0.187-0.519c0.054-0.195,0.22-0.337,0.421-0.357l12.46-1.25c0.119-0.011,0.236,0.02,0.332,0.089
					l6.841,4.922c0.164,0.118,0.238,0.325,0.186,0.519c-0.053,0.195-0.22,0.337-0.42,0.357l-12.459,1.251
					C139.874,141.323,139.857,141.324,139.842,141.324z M134.322,136.271l5.654,4.067l11-1.104l-5.652-4.066L134.322,136.271z"/>
			</g>
		</g>
		<g>
			<g>
				<polygon style="fill:#FFFFFF;" points="128.605,153.188 135.448,158.113 122.99,159.363 116.148,154.439 				"/>
				<path style="fill:#C9CACC;" d="M122.99,159.848c-0.102,0-0.201-0.032-0.283-0.091l-6.842-4.924
					c-0.164-0.118-0.237-0.325-0.186-0.519c0.053-0.195,0.22-0.337,0.421-0.357l12.456-1.251c0.117-0.011,0.236,0.02,0.332,0.089
					l6.843,4.925c0.164,0.118,0.237,0.324,0.186,0.519c-0.053,0.195-0.22,0.337-0.421,0.357l-12.458,1.251
					C123.022,159.847,123.006,159.848,122.99,159.848z M117.471,154.794l5.653,4.068l11.001-1.104l-5.654-4.069L117.471,154.794z"/>
			</g>
		</g>
		<g>
			<g>
				<polygon style="fill:#FFFFFF;" points="164.759,138.339 157.915,133.415 170.376,132.165 177.219,137.088 				"/>
				<path style="fill:#C9CACC;" d="M164.759,138.824c-0.102,0-0.201-0.032-0.283-0.091l-6.844-4.923
					c-0.163-0.117-0.237-0.324-0.186-0.519c0.054-0.194,0.22-0.337,0.421-0.357l12.46-1.251c0.117-0.01,0.236,0.02,0.332,0.089
					l6.843,4.923c0.164,0.117,0.238,0.324,0.186,0.519c-0.053,0.194-0.22,0.336-0.42,0.357l-12.461,1.251
					C164.791,138.823,164.774,138.824,164.759,138.824z M159.239,133.77l5.653,4.067l11.003-1.104l-5.654-4.067L159.239,133.77z"/>
			</g>
		</g>
		<g>
			<g>
				<polygon style="fill:#FFFFFF;" points="208.977,139.51 221.434,138.258 228.276,143.182 215.816,144.433 				"/>
				<path style="fill:#C9CACC;" d="M215.816,144.919c-0.101,0-0.201-0.032-0.283-0.091l-6.84-4.923
					c-0.163-0.118-0.237-0.324-0.186-0.519c0.054-0.194,0.22-0.336,0.421-0.357l12.456-1.252c0.117-0.012,0.236,0.02,0.332,0.089
					l6.843,4.924c0.164,0.117,0.238,0.324,0.186,0.519c-0.053,0.194-0.22,0.337-0.42,0.357l-12.461,1.251
					C215.849,144.917,215.832,144.919,215.816,144.919z M210.299,139.865l5.651,4.067l11.003-1.105l-5.654-4.068L210.299,139.865z"
					/>
			</g>
		</g>
		<g>
			<g>
				<polygon style="fill:#FFFFFF;" points="153.524,150.686 160.365,155.611 147.904,156.861 141.066,151.938 				"/>
				<path style="fill:#C9CACC;" d="M147.904,157.347c-0.101,0-0.2-0.032-0.283-0.092l-6.839-4.923
					c-0.164-0.118-0.237-0.324-0.185-0.519c0.053-0.195,0.22-0.337,0.421-0.357l12.458-1.253c0.116-0.01,0.236,0.02,0.332,0.089
					l6.841,4.925c0.164,0.118,0.237,0.325,0.186,0.52c-0.053,0.194-0.22,0.337-0.421,0.357l-12.46,1.251
					C147.936,157.346,147.921,157.347,147.904,157.347z M142.388,152.293l5.651,4.067l11.004-1.104l-5.653-4.069L142.388,152.293z"
					/>
			</g>
		</g>
		<g>
			<g>
				<polygon style="fill:#FFFFFF;" points="165.982,149.436 172.825,154.361 160.365,155.611 153.524,150.686 				"/>
				<path style="fill:#C9CACC;" d="M160.365,156.096c-0.102,0-0.201-0.032-0.283-0.091l-6.841-4.925
					c-0.164-0.118-0.238-0.325-0.186-0.52c0.054-0.194,0.22-0.336,0.421-0.357l12.459-1.25c0.115-0.01,0.235,0.02,0.331,0.089
					l6.843,4.925c0.164,0.118,0.238,0.324,0.186,0.519c-0.053,0.194-0.22,0.337-0.42,0.357l-12.461,1.251
					C160.398,156.095,160.381,156.096,160.365,156.096z M154.847,151.041l5.653,4.069l11.002-1.104l-5.654-4.069L154.847,151.041z"
					/>
			</g>
		</g>
		<g>
			<g>
				<polygon style="fill:#FFFFFF;" points="141.066,151.938 147.904,156.861 135.448,158.113 128.605,153.188 				"/>
				<path style="fill:#C9CACC;" d="M135.448,158.598c-0.102,0-0.201-0.032-0.283-0.091l-6.843-4.925
					c-0.164-0.118-0.238-0.324-0.186-0.519c0.053-0.195,0.22-0.337,0.42-0.357l12.461-1.249c0.117-0.012,0.235,0.019,0.331,0.089
					l6.84,4.923c0.163,0.118,0.237,0.325,0.185,0.519c-0.054,0.195-0.22,0.337-0.421,0.357l-12.457,1.251
					C135.48,158.597,135.464,158.598,135.448,158.598z M129.929,153.543l5.654,4.069l10.999-1.105l-5.651-4.067L129.929,153.543z"/>
			</g>
		</g>
		<g>
			<g>
				<polygon style="fill:#FFFFFF;" points="178.438,148.186 185.282,153.108 172.825,154.361 165.982,149.436 				"/>
				<path style="fill:#C9CACC;" d="M172.825,154.846c-0.101,0-0.2-0.032-0.283-0.091l-6.843-4.925
					c-0.164-0.118-0.238-0.325-0.185-0.519c0.053-0.195,0.22-0.337,0.421-0.357l12.456-1.25c0.117-0.011,0.236,0.02,0.332,0.089
					l6.843,4.923c0.164,0.118,0.237,0.324,0.185,0.519c-0.053,0.195-0.22,0.337-0.421,0.357l-12.456,1.252
					C172.857,154.845,172.842,154.846,172.825,154.846z M167.306,149.79l5.654,4.069l10.999-1.106l-5.654-4.067L167.306,149.79z"/>
			</g>
		</g>
		<g>
			<g>
				<polygon style="fill:#FFFFFF;" points="215.816,144.433 222.659,149.357 210.201,150.607 203.359,145.683 				"/>
				<path style="fill:#C9CACC;" d="M210.201,151.093c-0.102,0-0.201-0.032-0.283-0.092l-6.842-4.925
					c-0.164-0.118-0.237-0.324-0.186-0.519c0.053-0.194,0.22-0.337,0.421-0.357l12.456-1.249c0.117-0.01,0.236,0.02,0.332,0.089
					l6.843,4.924c0.164,0.117,0.238,0.324,0.186,0.519c-0.053,0.194-0.22,0.337-0.421,0.357l-12.458,1.25
					C210.233,151.092,210.217,151.093,210.201,151.093z M204.683,146.038l5.652,4.069l11.001-1.104l-5.654-4.068L204.683,146.038z"
					/>
			</g>
		</g>
		<g>
			<g>
				<polygon style="fill:#FFFFFF;" points="228.276,143.182 235.117,148.105 222.659,149.357 215.816,144.433 				"/>
				<path style="fill:#C9CACC;" d="M222.659,149.842c-0.102,0-0.201-0.032-0.283-0.091l-6.843-4.924
					c-0.164-0.118-0.238-0.325-0.185-0.52c0.053-0.194,0.22-0.336,0.42-0.357l12.461-1.251c0.117-0.009,0.235,0.02,0.331,0.089
					l6.841,4.923c0.164,0.117,0.238,0.324,0.187,0.519c-0.054,0.195-0.22,0.337-0.421,0.357l-12.459,1.253
					C222.691,149.841,222.676,149.842,222.659,149.842z M217.14,144.788l5.654,4.068l11-1.105l-5.652-4.067L217.14,144.788z"/>
			</g>
		</g>
		<g>
			<g>
				<polygon style="fill:#FFFFFF;" points="203.359,145.683 210.201,150.607 197.74,151.858 190.899,146.935 				"/>
				<path style="fill:#C9CACC;" d="M197.74,152.343c-0.102,0-0.2-0.031-0.283-0.091l-6.841-4.923
					c-0.164-0.117-0.238-0.324-0.185-0.519c0.053-0.195,0.22-0.337,0.42-0.357l12.461-1.253c0.115-0.013,0.235,0.02,0.331,0.089
					l6.842,4.925c0.163,0.118,0.237,0.325,0.185,0.519c-0.054,0.195-0.22,0.337-0.421,0.357l-12.46,1.25
					C197.772,152.342,197.757,152.343,197.74,152.343z M192.223,147.29l5.652,4.067l11.003-1.104l-5.652-4.069L192.223,147.29z"/>
			</g>
		</g>
		<g>
			<g>
				<polygon style="fill:#FFFFFF;" points="190.899,146.935 197.74,151.858 185.282,153.108 178.438,148.186 				"/>
				<path style="fill:#C9CACC;" d="M185.282,153.593c-0.101,0-0.201-0.032-0.283-0.091l-6.844-4.923
					c-0.163-0.118-0.237-0.325-0.186-0.519c0.054-0.195,0.22-0.337,0.421-0.357l12.46-1.25c0.119-0.011,0.236,0.02,0.332,0.089
					l6.841,4.923c0.164,0.118,0.238,0.325,0.186,0.519c-0.053,0.195-0.22,0.337-0.42,0.357l-12.459,1.25
					C185.314,153.592,185.298,153.593,185.282,153.593z M179.763,148.54l5.653,4.067l11.001-1.104l-5.652-4.067L179.763,148.54z"/>
			</g>
		</g>
		<g>
			<g>
				<polygon style="fill:#FFFFFF;" points="152.3,139.589 145.459,134.667 157.915,133.415 164.759,138.339 				"/>
				<path style="fill:#C9CACC;" d="M152.3,140.074c-0.101,0-0.2-0.032-0.283-0.092l-6.841-4.922
					c-0.164-0.117-0.238-0.324-0.186-0.519c0.053-0.195,0.22-0.337,0.42-0.357l12.457-1.251c0.115-0.01,0.236,0.02,0.331,0.089
					l6.844,4.923c0.164,0.118,0.237,0.325,0.186,0.52c-0.053,0.194-0.22,0.336-0.421,0.357l-12.458,1.25
					C152.332,140.073,152.316,140.074,152.3,140.074z M146.782,135.022l5.652,4.066l11.001-1.104l-5.654-4.067L146.782,135.022z"/>
			</g>
		</g>
		<g>
			<g>
				<polygon style="fill:#FFFFFF;" points="171.6,143.262 164.759,138.339 177.219,137.088 184.059,142.011 				"/>
				<path style="fill:#C9CACC;" d="M171.6,143.747c-0.102,0-0.201-0.032-0.283-0.091l-6.841-4.923
					c-0.164-0.118-0.238-0.325-0.186-0.519c0.053-0.194,0.22-0.336,0.42-0.357l12.461-1.251c0.117-0.01,0.235,0.02,0.331,0.089
					l6.84,4.923c0.163,0.118,0.237,0.324,0.186,0.519c-0.054,0.195-0.22,0.337-0.421,0.357l-12.458,1.251
					C171.632,143.746,171.616,143.747,171.6,143.747z M166.082,138.693l5.652,4.067l11-1.104l-5.65-4.067L166.082,138.693z"/>
			</g>
		</g>
		<g>
			<g>
				<polygon style="fill:#FFFFFF;" points="184.059,142.011 177.219,137.088 189.676,135.836 196.517,140.761 				"/>
				<path style="fill:#C9CACC;" d="M184.059,142.496c-0.102,0-0.201-0.032-0.284-0.091l-6.839-4.923
					c-0.164-0.118-0.237-0.325-0.186-0.519c0.053-0.195,0.22-0.337,0.421-0.357l12.456-1.252c0.115-0.012,0.236,0.02,0.332,0.089
					l6.841,4.925c0.164,0.118,0.237,0.324,0.186,0.519c-0.053,0.195-0.22,0.337-0.421,0.357l-12.458,1.25
					C184.09,142.495,184.074,142.496,184.059,142.496z M178.541,137.442l5.651,4.068l11.002-1.104l-5.653-4.069L178.541,137.442z"/>
			</g>
		</g>
		<g>
			<g>
				<polygon style="fill:#FFFFFF;" points="189.676,135.836 202.136,134.585 208.977,139.51 196.517,140.761 				"/>
				<path style="fill:#C9CACC;" d="M196.517,141.246c-0.102,0-0.201-0.032-0.283-0.091l-6.841-4.925
					c-0.164-0.118-0.238-0.324-0.186-0.519c0.054-0.195,0.221-0.337,0.421-0.357l12.461-1.251c0.116-0.012,0.235,0.02,0.331,0.089
					l6.841,4.925c0.164,0.118,0.238,0.325,0.186,0.519c-0.053,0.195-0.22,0.337-0.42,0.357l-12.461,1.251
					C196.549,141.245,196.532,141.246,196.517,141.246z M190.998,136.191l5.653,4.069l11.003-1.104l-5.653-4.069L190.998,136.191z"
					/>
			</g>
		</g>
		<g>
			<g>
				<polygon style="fill:#FFFFFF;" points="208.977,139.51 215.816,144.433 203.359,145.683 196.517,140.761 				"/>
				<path style="fill:#C9CACC;" d="M203.359,146.168c-0.102,0-0.2-0.032-0.283-0.092l-6.843-4.922
					c-0.164-0.117-0.238-0.324-0.186-0.519c0.053-0.195,0.22-0.337,0.42-0.357l12.461-1.25c0.115-0.01,0.235,0.02,0.331,0.089
					l6.84,4.923c0.164,0.118,0.237,0.325,0.186,0.52c-0.053,0.194-0.22,0.336-0.421,0.357l-12.456,1.249
					C203.392,146.167,203.376,146.168,203.359,146.168z M197.84,141.116l5.654,4.066l10.999-1.103l-5.65-4.067L197.84,141.116z"/>
			</g>
		</g>
		<g>
			<g>
				<polygon style="fill:#FFFFFF;" points="159.142,144.514 152.3,139.589 164.759,138.339 171.6,143.262 				"/>
				<path style="fill:#C9CACC;" d="M159.142,144.999c-0.102,0-0.201-0.032-0.283-0.092l-6.842-4.925
					c-0.164-0.118-0.237-0.324-0.186-0.519c0.053-0.194,0.22-0.336,0.421-0.357l12.458-1.251c0.117-0.01,0.236,0.02,0.332,0.089
					l6.841,4.923c0.164,0.117,0.238,0.324,0.186,0.519c-0.053,0.194-0.22,0.337-0.42,0.357l-12.459,1.252
					C159.174,144.998,159.157,144.999,159.142,144.999z M153.622,139.944l5.653,4.069l11.001-1.105l-5.652-4.067L153.622,139.944z"
					/>
			</g>
		</g>
		<g>
			<g>
				<polygon style="fill:#FFFFFF;" points="109.308,149.517 102.464,144.592 114.923,143.342 121.764,148.266 				"/>
				<path style="fill:#C9CACC;" d="M109.308,150.001c-0.102,0-0.201-0.032-0.283-0.091l-6.844-4.924
					c-0.163-0.117-0.237-0.324-0.186-0.519c0.054-0.194,0.221-0.336,0.421-0.357l12.459-1.25c0.117-0.011,0.235,0.02,0.331,0.089
					l6.841,4.924c0.164,0.118,0.238,0.324,0.187,0.519c-0.054,0.194-0.221,0.336-0.421,0.357l-12.457,1.25
					C109.34,150.001,109.323,150.001,109.308,150.001z M103.788,144.947l5.654,4.068l10.998-1.104l-5.652-4.068L103.788,144.947z"/>
			</g>
		</g>
		<g>
			<g>
				<polygon style="fill:#FFFFFF;" points="121.764,148.266 114.923,143.342 127.383,142.092 134.225,147.015 				"/>
				<path style="fill:#C9CACC;" d="M121.764,148.751c-0.101,0-0.2-0.032-0.283-0.091l-6.841-4.924
					c-0.164-0.118-0.237-0.325-0.186-0.519c0.053-0.195,0.22-0.337,0.421-0.357l12.46-1.251c0.115-0.011,0.235,0.02,0.331,0.089
					l6.842,4.923c0.164,0.117,0.237,0.324,0.186,0.519c-0.053,0.195-0.22,0.337-0.421,0.357l-12.46,1.251
					C121.796,148.75,121.78,148.751,121.764,148.751z M116.246,143.697l5.652,4.068l11.003-1.105l-5.652-4.067L116.246,143.697z"/>
			</g>
		</g>
		<g>
			<g>
				<polygon style="fill:#FFFFFF;" points="134.225,147.015 127.383,142.092 139.842,140.839 146.683,145.764 				"/>
				<path style="fill:#C9CACC;" d="M134.225,147.499c-0.102,0-0.201-0.032-0.283-0.091l-6.842-4.923
					c-0.163-0.118-0.237-0.325-0.186-0.519c0.054-0.195,0.22-0.337,0.421-0.357l12.458-1.252c0.119-0.01,0.236,0.02,0.332,0.089
					l6.841,4.925c0.164,0.118,0.238,0.325,0.186,0.519c-0.053,0.195-0.22,0.337-0.42,0.357l-12.459,1.25
					C134.257,147.499,134.24,147.499,134.225,147.499z M128.707,142.446l5.651,4.068l11.002-1.104l-5.653-4.069L128.707,142.446z"/>
			</g>
		</g>
		<g>
			<g>
				<polygon style="fill:#FFFFFF;" points="146.683,145.764 139.842,140.839 152.3,139.589 159.142,144.514 				"/>
				<path style="fill:#C9CACC;" d="M146.683,146.249c-0.102,0-0.2-0.032-0.283-0.091l-6.841-4.925
					c-0.164-0.118-0.238-0.324-0.186-0.519c0.053-0.195,0.22-0.337,0.42-0.357l12.459-1.25c0.117-0.009,0.235,0.019,0.331,0.089
					l6.842,4.925c0.163,0.118,0.237,0.325,0.186,0.519c-0.054,0.195-0.22,0.337-0.421,0.357l-12.458,1.251
					C146.715,146.249,146.699,146.249,146.683,146.249z M141.164,141.194l5.653,4.069l11.002-1.104l-5.653-4.069L141.164,141.194z"
					/>
			</g>
		</g>
		<g>
			<g>
				<polygon style="fill:#FFFFFF;" points="196.517,140.761 203.359,145.683 190.899,146.935 184.059,142.011 				"/>
				<path style="fill:#C9CACC;" d="M190.899,147.42c-0.102,0-0.201-0.032-0.283-0.091l-6.842-4.924
					c-0.163-0.118-0.237-0.324-0.186-0.519c0.054-0.195,0.22-0.337,0.421-0.357l12.458-1.25c0.119-0.011,0.236,0.019,0.332,0.089
					l6.843,4.922c0.164,0.118,0.238,0.325,0.186,0.519c-0.052,0.195-0.22,0.337-0.42,0.357l-12.461,1.252
					C190.932,147.419,190.915,147.42,190.899,147.42z M185.382,142.366l5.652,4.068l11.002-1.106l-5.654-4.067L185.382,142.366z"/>
			</g>
		</g>
		<g>
			<g>
				<polygon style="fill:#FFFFFF;" points="116.148,154.439 103.688,155.691 96.849,150.767 109.308,149.517 				"/>
				<path style="fill:#C9CACC;" d="M103.688,156.176c-0.102,0-0.201-0.032-0.283-0.091l-6.84-4.924
					c-0.164-0.118-0.237-0.324-0.186-0.519c0.053-0.194,0.221-0.336,0.421-0.357l12.458-1.251c0.116-0.011,0.236,0.02,0.332,0.089
					l6.841,4.923c0.164,0.117,0.238,0.324,0.185,0.519c-0.053,0.194-0.22,0.336-0.42,0.357l-12.46,1.251
					C103.721,156.175,103.704,156.176,103.688,156.176z M98.171,151.122l5.652,4.068l11.002-1.105l-5.652-4.067L98.171,151.122z"/>
			</g>
		</g>
		<g>
			<g>
				<polygon style="fill:#FFFFFF;" points="90.008,145.843 83.165,140.92 95.624,139.67 102.464,144.592 				"/>
				<path style="fill:#C9CACC;" d="M90.008,146.328c-0.101,0-0.2-0.031-0.283-0.091l-6.843-4.923
					c-0.164-0.117-0.238-0.324-0.186-0.519c0.053-0.195,0.219-0.337,0.42-0.357l12.459-1.249c0.115-0.012,0.236,0.02,0.332,0.089
					l6.84,4.922c0.164,0.118,0.238,0.325,0.186,0.519c-0.053,0.195-0.219,0.337-0.42,0.357l-12.457,1.251
					C90.04,146.327,90.024,146.328,90.008,146.328z M84.488,141.275l5.654,4.067l10.999-1.104l-5.652-4.066L84.488,141.275z"/>
			</g>
		</g>
		<g>
			<g>
				<polygon style="fill:#FFFFFF;" points="134.225,147.015 141.066,151.938 128.605,153.188 121.764,148.266 				"/>
				<path style="fill:#C9CACC;" d="M128.605,153.673c-0.102,0-0.201-0.032-0.283-0.091l-6.842-4.922
					c-0.163-0.118-0.237-0.325-0.186-0.519c0.054-0.195,0.22-0.337,0.421-0.357l12.46-1.251c0.119-0.011,0.236,0.02,0.332,0.089
					l6.841,4.924c0.164,0.118,0.238,0.324,0.185,0.519c-0.053,0.195-0.22,0.337-0.42,0.357l-12.461,1.249
					C128.638,153.672,128.621,153.673,128.605,153.673z M123.087,148.621l5.652,4.066l11.003-1.103l-5.652-4.068L123.087,148.621z"
					/>
			</g>
		</g>
		<g>
			<g>
				<polygon style="fill:#FFFFFF;" points="109.308,149.517 96.849,150.767 90.008,145.843 102.464,144.592 				"/>
				<path style="fill:#C9CACC;" d="M96.849,151.252c-0.102,0-0.2-0.032-0.283-0.092l-6.841-4.924
					c-0.163-0.118-0.237-0.324-0.186-0.519c0.054-0.195,0.22-0.337,0.421-0.357l12.456-1.251c0.116-0.01,0.235,0.02,0.331,0.089
					l6.844,4.924c0.164,0.118,0.237,0.325,0.186,0.52c-0.053,0.194-0.22,0.336-0.421,0.357l-12.458,1.251
					C96.882,151.251,96.865,151.252,96.849,151.252z M91.331,146.198l5.652,4.068l11.001-1.104l-5.654-4.068L91.331,146.198z"/>
			</g>
		</g>
		<g>
			<g>
				<polygon style="fill:#FFFFFF;" points="121.764,148.266 128.605,153.188 116.148,154.439 109.308,149.517 				"/>
				<path style="fill:#C9CACC;" d="M116.148,154.924c-0.102,0-0.2-0.032-0.283-0.091l-6.841-4.923
					c-0.164-0.118-0.238-0.325-0.186-0.52c0.053-0.194,0.22-0.336,0.42-0.357l12.457-1.25c0.117-0.012,0.235,0.02,0.331,0.089
					l6.842,4.922c0.164,0.117,0.237,0.324,0.185,0.519c-0.053,0.195-0.22,0.337-0.421,0.357l-12.456,1.252
					C116.181,154.923,116.165,154.924,116.148,154.924z M110.631,149.871l5.652,4.067l10.999-1.105l-5.652-4.066L110.631,149.871z"
					/>
			</g>
		</g>
		<g>
			<g>
				<polygon style="fill:#FFFFFF;" points="184.059,142.011 190.899,146.935 178.438,148.186 171.6,143.262 				"/>
				<path style="fill:#C9CACC;" d="M178.438,148.67c-0.101,0-0.2-0.032-0.283-0.091l-6.839-4.924
					c-0.164-0.118-0.237-0.325-0.186-0.519c0.053-0.195,0.22-0.337,0.421-0.357l12.458-1.25c0.115-0.01,0.236,0.02,0.332,0.089
					l6.841,4.924c0.164,0.118,0.237,0.324,0.186,0.519c-0.053,0.195-0.22,0.337-0.421,0.357l-12.46,1.251
					C178.471,148.669,178.455,148.67,178.438,148.67z M172.922,143.616l5.651,4.068l11.003-1.104l-5.652-4.068L172.922,143.616z"/>
			</g>
		</g>
		<g>
			<g>
				<polygon style="fill:#FFFFFF;" points="146.683,145.764 153.524,150.686 141.066,151.938 134.225,147.015 				"/>
				<path style="fill:#C9CACC;" d="M141.066,152.423c-0.102,0-0.201-0.032-0.283-0.091l-6.841-4.924
					c-0.164-0.118-0.238-0.324-0.186-0.519c0.053-0.195,0.22-0.337,0.42-0.357l12.459-1.25c0.117-0.012,0.235,0.02,0.331,0.089
					l6.842,4.922c0.163,0.118,0.237,0.325,0.186,0.519c-0.054,0.195-0.22,0.337-0.421,0.357l-12.458,1.252
					C141.098,152.422,141.082,152.423,141.066,152.423z M135.548,147.37l5.652,4.068l11-1.105l-5.652-4.067L135.548,147.37z"/>
			</g>
		</g>
		<g>
			<g>
				<polygon style="fill:#FFFFFF;" points="171.6,143.262 178.438,148.186 165.982,149.436 159.142,144.514 				"/>
				<path style="fill:#C9CACC;" d="M165.982,149.921c-0.102,0-0.201-0.032-0.283-0.091l-6.841-4.922
					c-0.164-0.117-0.238-0.324-0.186-0.519c0.054-0.194,0.221-0.336,0.421-0.357l12.459-1.253c0.115-0.01,0.235,0.02,0.331,0.089
					l6.84,4.924c0.163,0.118,0.237,0.324,0.185,0.519c-0.054,0.195-0.22,0.337-0.421,0.357l-12.457,1.251
					C166.015,149.92,165.998,149.921,165.982,149.921z M160.465,144.868l5.652,4.066l10.999-1.104l-5.651-4.068L160.465,144.868z"/>
			</g>
		</g>
		<g>
			<g>
				<polygon style="fill:#FFFFFF;" points="159.142,144.514 165.982,149.436 153.524,150.686 146.683,145.764 				"/>
				<path style="fill:#C9CACC;" d="M153.524,151.171c-0.102,0-0.201-0.032-0.283-0.091l-6.842-4.922
					c-0.164-0.117-0.237-0.324-0.186-0.519c0.053-0.195,0.22-0.337,0.421-0.357l12.458-1.251c0.116-0.011,0.236,0.02,0.332,0.089
					l6.841,4.922c0.164,0.117,0.237,0.324,0.186,0.519c-0.053,0.194-0.22,0.337-0.421,0.357l-12.458,1.25
					C153.557,151.17,153.54,151.171,153.524,151.171z M148.006,146.119l5.652,4.066l11.001-1.104l-5.652-4.066L148.006,146.119z"/>
			</g>
		</g>
		<g>
			<g>
				<polygon style="fill:#FFFFFF;" points="177.219,137.088 170.376,132.165 182.834,130.914 189.676,135.836 				"/>
				<path style="fill:#C9CACC;" d="M177.219,137.573c-0.102,0-0.201-0.032-0.283-0.091l-6.843-4.923
					c-0.164-0.118-0.238-0.325-0.186-0.519c0.053-0.195,0.22-0.337,0.42-0.358l12.459-1.251c0.116-0.009,0.235,0.02,0.331,0.089
					l6.842,4.922c0.163,0.118,0.237,0.324,0.186,0.519c-0.054,0.195-0.22,0.337-0.421,0.357l-12.456,1.252
					C177.251,137.572,177.235,137.573,177.219,137.573z M171.699,132.52l5.654,4.067l10.999-1.105l-5.652-4.066L171.699,132.52z"/>
			</g>
		</g>
		<g>
			<g>
				<polygon style="fill:#FFFFFF;" points="222.659,149.357 229.354,154.175 216.896,155.427 210.201,150.607 				"/>
				<path style="fill:#C9CACC;" d="M216.896,155.912c-0.102,0-0.201-0.032-0.283-0.091l-6.695-4.82
					c-0.164-0.118-0.238-0.324-0.187-0.519c0.054-0.194,0.22-0.337,0.421-0.357l12.459-1.251c0.117-0.011,0.235,0.02,0.331,0.089
					l6.695,4.817c0.164,0.118,0.237,0.325,0.186,0.52c-0.053,0.194-0.22,0.336-0.421,0.357l-12.458,1.253
					C216.929,155.911,216.912,155.912,216.896,155.912z M211.523,150.962l5.507,3.964l11.001-1.105l-5.507-3.962L211.523,150.962z"
					/>
			</g>
		</g>
		<g>
			<g>
				<polygon style="fill:#FFFFFF;" points="228.276,143.182 237.05,142.3 243.876,147.226 235.117,148.105 				"/>
				<path style="fill:#C9CACC;" d="M235.117,148.59c-0.101,0-0.2-0.032-0.283-0.091l-6.841-4.923
					c-0.164-0.118-0.237-0.325-0.186-0.519c0.053-0.195,0.22-0.337,0.421-0.357l8.773-0.882c0.115-0.012,0.235,0.02,0.332,0.09
					l6.826,4.926c0.163,0.118,0.237,0.324,0.184,0.519c-0.052,0.194-0.219,0.336-0.419,0.356l-8.759,0.879
					C235.149,148.589,235.134,148.59,235.117,148.59z M229.6,143.536l5.652,4.068l7.304-0.733l-5.64-4.07L229.6,143.536z"/>
			</g>
		</g>
		<g>
			<g>
				<polygon style="fill:#FFFFFF;" points="221.434,138.258 230.224,137.376 237.05,142.3 228.276,143.182 				"/>
				<path style="fill:#C9CACC;" d="M228.276,143.667c-0.102,0-0.201-0.032-0.283-0.091l-6.843-4.924
					c-0.164-0.118-0.238-0.325-0.185-0.519c0.053-0.195,0.22-0.337,0.42-0.357l8.791-0.882c0.114-0.011,0.236,0.02,0.332,0.089
					l6.826,4.924c0.163,0.117,0.237,0.324,0.184,0.519c-0.052,0.194-0.219,0.336-0.419,0.356l-8.774,0.882
					C228.309,143.666,228.293,143.667,228.276,143.667z M222.757,138.613l5.654,4.068l7.318-0.735l-5.64-4.068L222.757,138.613z"/>
			</g>
		</g>
		<g>
			<g>
				<polygon style="fill:#FFFFFF;" points="235.117,148.105 241.814,152.926 229.354,154.175 222.659,149.357 				"/>
				<path style="fill:#C9CACC;" d="M229.354,154.66c-0.102,0-0.201-0.032-0.283-0.091l-6.695-4.818
					c-0.164-0.118-0.237-0.325-0.186-0.519c0.053-0.195,0.22-0.337,0.421-0.357l12.458-1.252c0.116-0.01,0.236,0.019,0.331,0.089
					l6.697,4.821c0.164,0.118,0.238,0.324,0.186,0.519c-0.054,0.194-0.221,0.336-0.421,0.357l-12.461,1.249
					C229.387,154.659,229.37,154.66,229.354,154.66z M223.982,149.711l5.507,3.962l11.002-1.103l-5.508-3.965L223.982,149.711z"/>
			</g>
		</g>
		<g>
			<g>
				<polygon style="fill:#FFFFFF;" points="243.876,147.226 250.558,152.047 241.814,152.926 235.117,148.105 				"/>
				<path style="fill:#C9CACC;" d="M241.814,153.411c-0.101,0-0.2-0.032-0.283-0.091l-6.697-4.821
					c-0.163-0.118-0.237-0.324-0.186-0.519c0.054-0.195,0.22-0.337,0.421-0.357l8.759-0.879c0.116-0.011,0.235,0.02,0.332,0.09
					l6.682,4.821c0.163,0.118,0.237,0.325,0.185,0.519c-0.053,0.195-0.219,0.336-0.42,0.357l-8.743,0.878
					C241.847,153.41,241.831,153.411,241.814,153.411z M236.441,148.46l5.508,3.965l7.288-0.731l-5.496-3.966L236.441,148.46z"/>
			</g>
		</g>
		<g>
			<g>
				<polygon style="fill:#FFFFFF;" points="116.148,154.439 122.99,159.363 110.531,160.615 103.688,155.691 				"/>
				<path style="fill:#C9CACC;" d="M110.531,161.1c-0.102,0-0.201-0.032-0.283-0.091l-6.843-4.924
					c-0.164-0.118-0.238-0.325-0.186-0.52c0.053-0.194,0.219-0.337,0.42-0.357l12.461-1.251c0.115-0.011,0.235,0.02,0.331,0.089
					l6.842,4.924c0.163,0.118,0.237,0.324,0.186,0.519c-0.054,0.195-0.22,0.337-0.421,0.357l-12.458,1.251
					C110.563,161.099,110.548,161.1,110.531,161.1z M105.012,156.045l5.654,4.068l11-1.105l-5.652-4.068L105.012,156.045z"/>
			</g>
		</g>
		<g>
			<g>
				<polygon style="fill:#FFFFFF;" points="104.769,166.685 92.444,167.922 85.61,163.116 98.071,161.865 				"/>
				<path style="fill:#C9CACC;" d="M92.444,168.407c-0.1,0-0.197-0.031-0.279-0.088l-6.834-4.806
					c-0.164-0.117-0.24-0.324-0.189-0.52s0.219-0.339,0.421-0.359l12.46-1.252c0.117-0.009,0.236,0.02,0.332,0.089l6.697,4.82
					c0.164,0.118,0.237,0.324,0.186,0.519c-0.053,0.195-0.221,0.337-0.421,0.357l-12.323,1.237
					C92.477,168.406,92.46,168.407,92.444,168.407z M86.955,163.469l5.621,3.952l10.868-1.091l-5.508-3.964L86.955,163.469z"/>
			</g>
		</g>
		<g>
			<g>
				<polygon style="fill:#FFFFFF;" points="91.231,156.942 78.63,158.206 71.647,153.297 84.389,152.018 				"/>
				<path style="fill:#C9CACC;" d="M78.63,158.691c-0.1,0-0.197-0.031-0.279-0.088l-6.98-4.909c-0.166-0.117-0.243-0.324-0.191-0.52
					c0.052-0.196,0.219-0.339,0.421-0.359l12.741-1.279c0.115-0.012,0.235,0.019,0.331,0.089l6.843,4.924
					c0.164,0.118,0.238,0.325,0.185,0.519c-0.053,0.195-0.219,0.337-0.42,0.357l-12.603,1.264
					C78.661,158.689,78.646,158.691,78.63,158.691z M72.992,153.649l5.769,4.056l11.147-1.118l-5.653-4.068L72.992,153.649z"/>
			</g>
		</g>
		<g>
			<g>
				<polygon style="fill:#FFFFFF;" points="98.071,161.865 85.61,163.116 78.63,158.206 91.231,156.942 				"/>
				<path style="fill:#C9CACC;" d="M85.61,163.601c-0.1,0-0.197-0.031-0.279-0.088l-6.98-4.911c-0.166-0.117-0.242-0.324-0.189-0.52
					c0.051-0.196,0.219-0.339,0.42-0.359l12.603-1.264c0.116-0.01,0.235,0.02,0.331,0.089l6.84,4.923
					c0.164,0.118,0.237,0.325,0.186,0.519c-0.053,0.195-0.22,0.337-0.421,0.357l-12.46,1.251
					C85.644,163.6,85.627,163.601,85.61,163.601z M79.974,158.559l5.768,4.057l11.007-1.105l-5.652-4.067L79.974,158.559z"/>
			</g>
		</g>
		<g>
			<g>
				<polygon style="fill:#FFFFFF;" points="77.548,147.095 84.389,152.018 71.647,153.297 64.667,148.387 				"/>
				<path style="fill:#C9CACC;" d="M71.647,153.782c-0.1,0-0.196-0.031-0.279-0.088l-6.98-4.91c-0.166-0.117-0.242-0.324-0.189-0.52
					c0.051-0.196,0.219-0.339,0.42-0.359l12.881-1.292c0.117-0.012,0.236,0.02,0.332,0.089l6.841,4.923
					c0.164,0.118,0.237,0.324,0.186,0.519c-0.053,0.195-0.22,0.337-0.421,0.357l-12.74,1.279
					C71.681,153.781,71.664,153.782,71.647,153.782z M66.011,148.74l5.77,4.057l11.285-1.133l-5.652-4.067L66.011,148.74z"/>
			</g>
		</g>
		<g>
			<g>
				<polygon style="fill:#FFFFFF;" points="110.531,160.615 117.227,165.433 104.769,166.685 98.071,161.865 				"/>
				<path style="fill:#C9CACC;" d="M104.769,167.169c-0.102,0-0.201-0.032-0.283-0.091l-6.697-4.82
					c-0.164-0.118-0.238-0.324-0.186-0.519c0.053-0.194,0.219-0.336,0.42-0.357l12.461-1.25c0.114-0.009,0.235,0.02,0.331,0.089
					l6.695,4.818c0.164,0.118,0.238,0.325,0.185,0.519c-0.053,0.195-0.22,0.337-0.42,0.357l-12.459,1.251
					C104.8,167.169,104.784,167.169,104.769,167.169z M99.395,162.22l5.509,3.964l11-1.105l-5.507-3.963L99.395,162.22z"/>
			</g>
		</g>
		<g>
			<g>
				<polygon style="fill:#FFFFFF;" points="214.593,133.335 223.4,132.45 230.224,137.376 221.434,138.258 				"/>
				<path style="fill:#C9CACC;" d="M221.434,138.743c-0.102,0-0.201-0.032-0.283-0.091l-6.842-4.923
					c-0.163-0.118-0.237-0.325-0.186-0.52c0.054-0.194,0.22-0.336,0.421-0.357l8.808-0.885c0.115-0.012,0.236,0.02,0.333,0.089
					l6.823,4.926c0.163,0.118,0.237,0.325,0.185,0.52c-0.053,0.194-0.219,0.336-0.42,0.356l-8.791,0.882
					C221.466,138.742,221.449,138.743,221.434,138.743z M215.916,133.69l5.652,4.067l7.335-0.735l-5.638-4.07L215.916,133.69z"/>
			</g>
		</g>
		<g>
			<g>
				<polygon style="fill:#FFFFFF;" points="122.99,159.363 129.686,164.182 117.227,165.433 110.531,160.615 				"/>
				<path style="fill:#C9CACC;" d="M117.227,165.919c-0.102,0-0.201-0.032-0.283-0.092l-6.695-4.818
					c-0.164-0.118-0.237-0.325-0.186-0.519c0.053-0.195,0.22-0.337,0.421-0.357l12.458-1.251c0.117-0.012,0.236,0.02,0.332,0.089
					l6.696,4.819c0.164,0.117,0.238,0.324,0.187,0.519c-0.054,0.194-0.22,0.337-0.421,0.357l-12.46,1.251
					C117.259,165.917,117.243,165.919,117.227,165.919z M111.854,160.969l5.507,3.963l11.002-1.105l-5.508-3.963L111.854,160.969z"
					/>
			</g>
		</g>
		<g>
			<g>
				<polygon style="fill:#FFFFFF;" points="135.448,158.113 147.904,156.861 160.365,155.611 172.825,154.361 185.282,153.108 
					197.74,151.858 210.201,150.607 216.896,155.427 204.439,156.678 191.979,157.929 179.519,159.179 167.063,160.43 
					154.604,161.68 142.145,162.932 129.686,164.182 122.99,159.363 				"/>
				<path style="fill:#C9CACC;" d="M129.686,164.667c-0.1,0-0.2-0.032-0.283-0.091l-6.696-4.819
					c-0.164-0.118-0.238-0.325-0.187-0.519c0.054-0.195,0.22-0.337,0.421-0.357l87.211-8.755c0.118-0.011,0.236,0.02,0.332,0.089
					l6.695,4.82c0.163,0.118,0.237,0.325,0.186,0.519c-0.054,0.195-0.22,0.337-0.421,0.357l-87.209,8.754
					C129.719,164.666,129.703,164.667,129.686,164.667z M124.313,159.718l5.508,3.963l85.752-8.608l-5.507-3.964L124.313,159.718z"
					/>
			</g>
		</g>
		<g>
			<g>
				<polygon style="fill:#FFFFFF;" points="70.706,142.171 63.394,136.908 75.888,135.683 83.165,140.92 				"/>
				<path style="fill:#C9CACC;" d="M70.706,142.656c-0.102,0-0.201-0.032-0.283-0.091l-7.313-5.263
					c-0.164-0.118-0.238-0.325-0.185-0.52c0.052-0.195,0.22-0.337,0.421-0.356l12.494-1.226c0.116-0.01,0.234,0.02,0.33,0.089
					l7.277,5.237c0.164,0.118,0.238,0.324,0.186,0.519c-0.053,0.195-0.22,0.337-0.42,0.357l-12.459,1.251
					C70.739,142.655,70.723,142.656,70.706,142.656z M64.72,137.266l6.121,4.405l11-1.105l-6.088-4.382L64.72,137.266z"/>
			</g>
		</g>
		<g>
			<g>
				<polygon style="fill:#FFFFFF;" points="95.624,139.67 88.378,134.456 100.871,133.229 108.082,138.418 				"/>
				<path style="fill:#C9CACC;" d="M95.624,140.155c-0.102,0-0.201-0.032-0.284-0.091l-7.245-5.214
					c-0.163-0.118-0.237-0.325-0.184-0.52c0.052-0.195,0.219-0.336,0.42-0.356l12.492-1.227c0.115-0.01,0.235,0.02,0.331,0.089
					l7.211,5.189c0.164,0.118,0.237,0.325,0.186,0.52c-0.053,0.194-0.22,0.336-0.421,0.357l-12.459,1.252
					C95.655,140.155,95.64,140.155,95.624,140.155z M89.704,134.813l6.054,4.356l11.001-1.105l-6.021-4.335L89.704,134.813z"/>
			</g>
		</g>
		<g>
			<g>
				<polygon style="fill:#FFFFFF;" points="57.686,143.479 50.187,138.206 63.394,136.908 70.706,142.171 				"/>
				<path style="fill:#C9CACC;" d="M57.686,143.964c-0.1,0-0.197-0.031-0.28-0.088l-7.498-5.273
					c-0.166-0.117-0.242-0.325-0.189-0.52c0.051-0.196,0.22-0.339,0.422-0.359l13.207-1.298c0.115-0.01,0.234,0.019,0.33,0.089
					l7.313,5.263c0.164,0.117,0.238,0.324,0.186,0.519c-0.053,0.194-0.219,0.336-0.42,0.357l-13.021,1.308
					C57.718,143.963,57.701,143.964,57.686,143.964z M51.534,138.561l6.283,4.418l11.566-1.163l-6.125-4.408L51.534,138.561z"/>
			</g>
		</g>
		<g>
			<g>
				<polygon style="fill:#FFFFFF;" points="83.165,140.92 75.888,135.683 88.378,134.456 95.624,139.67 				"/>
				<path style="fill:#C9CACC;" d="M83.165,141.405c-0.102,0-0.201-0.032-0.283-0.091l-7.277-5.237
					c-0.164-0.118-0.237-0.325-0.185-0.52c0.052-0.195,0.22-0.337,0.421-0.357l12.49-1.226c0.115-0.01,0.235,0.02,0.33,0.089
					l7.246,5.215c0.163,0.118,0.237,0.325,0.186,0.519c-0.054,0.195-0.221,0.337-0.422,0.357l-12.457,1.249
					C83.197,141.404,83.181,141.405,83.165,141.405z M77.214,136.04l6.086,4.379l11-1.103l-6.056-4.359L77.214,136.04z"/>
			</g>
		</g>
		<g>
			<g>
				<polygon style="fill:#FFFFFF;" points="77.548,147.095 64.667,148.387 57.686,143.479 70.706,142.171 				"/>
				<path style="fill:#C9CACC;" d="M64.667,148.872c-0.1,0-0.197-0.031-0.279-0.088l-6.981-4.908
					c-0.166-0.117-0.242-0.324-0.191-0.52c0.052-0.196,0.219-0.339,0.422-0.36l13.02-1.308c0.117-0.011,0.235,0.02,0.331,0.089
					l6.842,4.924c0.164,0.118,0.237,0.324,0.186,0.519c-0.053,0.195-0.22,0.337-0.421,0.357l-12.881,1.292
					C64.698,148.871,64.683,148.872,64.667,148.872z M59.029,143.832l5.769,4.055l11.426-1.146l-5.652-4.068L59.029,143.832z"/>
			</g>
		</g>
		<g>
			<g>
				<polygon style="fill:#FFFFFF;" points="110.531,160.615 98.071,161.865 91.231,156.942 103.688,155.691 				"/>
				<path style="fill:#C9CACC;" d="M98.071,162.35c-0.102,0-0.201-0.032-0.283-0.092l-6.84-4.923
					c-0.164-0.118-0.237-0.324-0.186-0.519c0.053-0.195,0.22-0.337,0.421-0.357l12.456-1.252c0.117-0.012,0.236,0.02,0.332,0.089
					l6.843,4.924c0.164,0.117,0.238,0.324,0.186,0.519c-0.053,0.194-0.22,0.336-0.42,0.357l-12.461,1.251
					C98.103,162.349,98.087,162.35,98.071,162.35z M92.554,157.297l5.652,4.067l11.002-1.104l-5.654-4.068L92.554,157.297z"/>
			</g>
		</g>
		<g>
			<g>
				<polygon style="fill:#FFFFFF;" points="103.688,155.691 91.231,156.942 84.389,152.018 96.849,150.767 				"/>
				<path style="fill:#C9CACC;" d="M91.231,157.427c-0.102,0-0.201-0.032-0.283-0.091l-6.843-4.924
					c-0.164-0.117-0.237-0.324-0.186-0.519c0.053-0.195,0.22-0.337,0.421-0.357l12.46-1.252c0.116-0.011,0.235,0.02,0.331,0.089
					l6.84,4.924c0.164,0.118,0.238,0.325,0.185,0.519c-0.053,0.194-0.22,0.337-0.42,0.357l-12.457,1.251
					C91.265,157.426,91.248,157.427,91.231,157.427z M85.712,152.373l5.654,4.068l11-1.105l-5.652-4.068L85.712,152.373z"/>
			</g>
		</g>
		<g>
			<g>
				<polygon style="fill:#FFFFFF;" points="83.165,140.92 90.008,145.843 77.548,147.095 70.706,142.171 				"/>
				<path style="fill:#C9CACC;" d="M77.548,147.58c-0.102,0-0.201-0.032-0.283-0.091l-6.842-4.924
					c-0.164-0.118-0.237-0.325-0.186-0.519c0.053-0.195,0.221-0.337,0.421-0.357l12.458-1.251c0.117-0.011,0.236,0.02,0.332,0.089
					l6.843,4.923c0.164,0.118,0.237,0.325,0.186,0.519c-0.053,0.195-0.22,0.337-0.421,0.357l-12.46,1.252
					C77.579,147.579,77.563,147.58,77.548,147.58z M72.03,142.526l5.652,4.068l11.002-1.105l-5.654-4.068L72.03,142.526z"/>
			</g>
		</g>
		<g>
			<g>
				<polygon style="fill:#FFFFFF;" points="96.849,150.767 84.389,152.018 77.548,147.095 90.008,145.843 				"/>
				<path style="fill:#C9CACC;" d="M84.389,152.503c-0.101,0-0.2-0.032-0.283-0.091l-6.841-4.923
					c-0.164-0.118-0.238-0.324-0.186-0.519c0.053-0.195,0.219-0.337,0.42-0.357l12.461-1.252c0.117-0.011,0.235,0.02,0.331,0.089
					l6.841,4.924c0.164,0.118,0.238,0.325,0.185,0.519c-0.053,0.195-0.219,0.337-0.42,0.357l-12.461,1.251
					C84.421,152.502,84.405,152.503,84.389,152.503z M78.871,147.449l5.652,4.068l11.003-1.105l-5.652-4.068L78.871,147.449z"/>
			</g>
		</g>
		<g>
			<g>
				<polygon style="fill:#FFFFFF;" points="108.082,138.418 100.871,133.229 113.363,132.003 120.54,137.168 				"/>
				<path style="fill:#C9CACC;" d="M108.082,138.903c-0.102,0-0.201-0.032-0.283-0.091l-7.211-5.189
					c-0.164-0.118-0.237-0.325-0.185-0.52c0.052-0.195,0.22-0.337,0.42-0.356l12.493-1.226c0.118-0.01,0.234,0.02,0.33,0.089
					l7.177,5.165c0.164,0.117,0.238,0.324,0.186,0.519c-0.053,0.194-0.22,0.336-0.42,0.357l-12.459,1.25
					C108.114,138.902,108.098,138.903,108.082,138.903z M102.197,133.586l6.018,4.331l11.001-1.104l-5.987-4.309L102.197,133.586z"
					/>
			</g>
		</g>
		<g>
			<g>
				<polygon style="fill:#FFFFFF;" points="195.293,129.664 188.319,124.642 200.81,123.416 207.753,128.412 				"/>
				<path style="fill:#C9CACC;" d="M195.293,130.148c-0.102,0-0.201-0.032-0.283-0.091l-6.974-5.022
					c-0.164-0.118-0.238-0.325-0.186-0.52c0.053-0.195,0.22-0.337,0.421-0.356l12.491-1.226c0.114-0.012,0.234,0.02,0.33,0.089
					l6.943,4.996c0.164,0.118,0.238,0.325,0.186,0.519c-0.053,0.195-0.22,0.337-0.42,0.357l-12.461,1.251
					C195.325,130.148,195.309,130.148,195.293,130.148z M189.645,124.999l5.781,4.164l11.003-1.105l-5.755-4.141L189.645,124.999z"
					/>
			</g>
		</g>
		<g>
			<g>
				<polygon style="fill:#FFFFFF;" points="182.834,130.914 175.826,125.869 188.319,124.642 195.293,129.664 				"/>
				<path style="fill:#C9CACC;" d="M182.834,131.399c-0.102,0-0.2-0.032-0.283-0.091l-7.008-5.045
					c-0.164-0.118-0.237-0.325-0.185-0.52c0.052-0.195,0.22-0.336,0.421-0.356l12.492-1.227c0.116-0.012,0.235,0.02,0.331,0.089
					l6.974,5.021c0.164,0.118,0.237,0.324,0.186,0.519c-0.053,0.195-0.22,0.337-0.421,0.357l-12.458,1.251
					C182.866,131.398,182.851,131.399,182.834,131.399z M177.152,126.226l5.816,4.187l11.002-1.105l-5.786-4.166L177.152,126.226z"
					/>
			</g>
		</g>
		<g>
			<g>
				<polygon style="fill:#FFFFFF;" points="170.376,132.165 163.334,127.096 175.826,125.869 182.834,130.914 				"/>
				<path style="fill:#C9CACC;" d="M170.376,132.65c-0.102,0-0.201-0.032-0.283-0.091l-7.042-5.07
					c-0.164-0.118-0.238-0.325-0.185-0.52c0.052-0.195,0.22-0.337,0.42-0.357l12.493-1.227c0.116-0.012,0.234,0.02,0.33,0.089
					l7.008,5.045c0.164,0.118,0.238,0.324,0.186,0.519c-0.053,0.195-0.22,0.337-0.42,0.357l-12.459,1.251
					C170.408,132.649,170.392,132.65,170.376,132.65z M164.66,127.453l5.851,4.211l11.001-1.105l-5.82-4.189L164.66,127.453z"/>
			</g>
		</g>
		<g>
			<g>
				<polygon style="fill:#FFFFFF;" points="200.81,123.416 209.674,122.546 216.574,127.525 207.753,128.412 				"/>
				<path style="fill:#C9CACC;" d="M207.753,128.898c-0.102,0-0.201-0.032-0.283-0.092l-6.943-4.996
					c-0.164-0.118-0.237-0.325-0.185-0.52c0.052-0.195,0.22-0.337,0.421-0.357l8.864-0.871c0.115-0.012,0.234,0.02,0.331,0.09
					l6.9,4.979c0.163,0.118,0.236,0.325,0.184,0.519c-0.052,0.195-0.219,0.336-0.42,0.357l-8.82,0.887
					C207.785,128.896,207.77,128.898,207.753,128.898z M202.137,123.773l5.751,4.138l7.366-0.74l-5.715-4.124L202.137,123.773z"/>
			</g>
		</g>
		<g>
			<g>
				<polygon style="fill:#FFFFFF;" points="207.753,128.412 216.574,127.525 223.4,132.45 214.593,133.335 				"/>
				<path style="fill:#C9CACC;" d="M214.593,133.82c-0.102,0-0.201-0.032-0.284-0.091l-6.839-4.923
					c-0.164-0.118-0.237-0.324-0.186-0.519c0.053-0.194,0.22-0.336,0.421-0.357l8.82-0.887c0.116-0.01,0.236,0.02,0.333,0.089
					l6.826,4.925c0.162,0.118,0.236,0.325,0.184,0.52c-0.053,0.194-0.219,0.336-0.42,0.356l-8.808,0.885
					C214.624,133.819,214.608,133.82,214.593,133.82z M209.075,128.767l5.651,4.067l7.353-0.738l-5.64-4.069L209.075,128.767z"/>
			</g>
		</g>
		<g>
			<g>
				<polygon style="fill:#FFFFFF;" points="120.54,137.168 113.363,132.003 125.856,130.777 132.999,135.917 				"/>
				<path style="fill:#C9CACC;" d="M120.54,137.653c-0.102,0-0.201-0.032-0.283-0.091l-7.177-5.164
					c-0.163-0.118-0.237-0.325-0.185-0.52c0.053-0.195,0.22-0.337,0.421-0.357l12.492-1.226c0.118-0.01,0.235,0.019,0.331,0.089
					l7.142,5.14c0.163,0.117,0.237,0.324,0.186,0.519c-0.054,0.195-0.22,0.337-0.421,0.357l-12.458,1.252
					C120.572,137.652,120.557,137.653,120.54,137.653z M114.689,132.36l5.985,4.306l11-1.105l-5.953-4.284L114.689,132.36z"/>
			</g>
		</g>
		<g>
			<g>
				<polygon style="fill:#FFFFFF;" points="132.999,135.917 125.856,130.777 138.349,129.55 145.459,134.667 				"/>
				<path style="fill:#C9CACC;" d="M132.999,136.401c-0.101,0-0.201-0.032-0.283-0.091l-7.143-5.14
					c-0.164-0.118-0.238-0.325-0.185-0.52c0.052-0.195,0.22-0.336,0.42-0.356l12.493-1.227c0.117-0.01,0.234,0.02,0.33,0.089
					l7.11,5.117c0.164,0.118,0.237,0.324,0.186,0.519c-0.053,0.195-0.22,0.337-0.421,0.357l-12.46,1.249
					C133.031,136.4,133.015,136.401,132.999,136.401z M127.183,131.134l5.95,4.282l11.003-1.103l-5.922-4.262L127.183,131.134z"/>
			</g>
		</g>
		<g>
			<g>
				<polygon style="fill:#FFFFFF;" points="157.915,133.415 150.841,128.324 163.334,127.096 170.376,132.165 				"/>
				<path style="fill:#C9CACC;" d="M157.915,133.901c-0.101,0-0.2-0.032-0.283-0.092l-7.074-5.091
					c-0.163-0.118-0.237-0.325-0.185-0.52c0.053-0.195,0.22-0.337,0.421-0.357l12.492-1.229c0.118-0.012,0.235,0.02,0.331,0.089
					l7.042,5.069c0.164,0.118,0.237,0.325,0.186,0.52c-0.053,0.194-0.22,0.337-0.421,0.357l-12.46,1.251
					C157.947,133.9,157.932,133.901,157.915,133.901z M152.167,128.681l5.883,4.233l11.004-1.104l-5.855-4.214L152.167,128.681z"/>
			</g>
		</g>
		<g>
			<g>
				<polygon style="fill:#FFFFFF;" points="145.459,134.667 138.349,129.55 150.841,128.324 157.915,133.415 				"/>
				<path style="fill:#C9CACC;" d="M145.459,135.152c-0.102,0-0.201-0.032-0.283-0.091l-7.11-5.117
					c-0.164-0.118-0.237-0.325-0.185-0.52c0.052-0.195,0.22-0.336,0.421-0.356l12.492-1.226c0.117-0.01,0.235,0.02,0.331,0.089
					l7.073,5.091c0.164,0.118,0.238,0.325,0.186,0.519c-0.054,0.195-0.22,0.337-0.421,0.357l-12.457,1.251
					C145.491,135.151,145.475,135.152,145.459,135.152z M139.675,129.907l5.919,4.259l10.998-1.105l-5.885-4.236L139.675,129.907z"
					/>
			</g>
		</g>
	</g>
</g>
</svg>
